<?xml version="1.0" encoding="UTF-8" standalone="no"?>
<svg
   xmlns:dc="http://purl.org/dc/elements/1.1/"
   xmlns:cc="http://creativecommons.org/ns#"
   xmlns:rdf="http://www.w3.org/1999/02/22-rdf-syntax-ns#"
   xmlns:svg="http://www.w3.org/2000/svg"
   xmlns="http://www.w3.org/2000/svg"
   xmlns:sodipodi="http://sodipodi.sourceforge.net/DTD/sodipodi-0.dtd"
   xmlns:inkscape="http://www.inkscape.org/namespaces/inkscape"
   inkscape:version="1.0 (4035a4f, 2020-05-01)"
   viewBox="0 0 507.82936 137.69783"
   sodipodi:docname="logo.svg"
   id="svg875"
   version="1.1"
   height="125.17985"
   width="461.66306">
  <metadata
     id="metadata881">
    <rdf:RDF>
      <cc:Work
         rdf:about="">
        <dc:format>image/svg+xml</dc:format>
        <dc:type
           rdf:resource="http://purl.org/dc/dcmitype/StillImage" />
        <dc:title></dc:title>
      </cc:Work>
    </rdf:RDF>
  </metadata>
  <defs
     id="defs879" />
  <sodipodi:namedview
     inkscape:current-layer="svg875"
     inkscape:window-maximized="1"
     inkscape:window-y="23"
     inkscape:window-x="0"
     inkscape:cy="129.86733"
     inkscape:cx="207.92616"
     inkscape:zoom="1.3249068"
     scale-x="1.1"
     showgrid="false"
     id="namedview877"
     inkscape:window-height="776"
     inkscape:window-width="1440"
     inkscape:pageshadow="2"
     inkscape:pageopacity="0"
     guidetolerance="10"
     gridtolerance="10"
     objecttolerance="10"
     borderopacity="1"
     bordercolor="#666666"
     pagecolor="#ffffff" />
  <g
     transform="translate(-1.1069543,-1.1997683)"
     id="g863"
     fill="#40a1a2">
    <path
       id="path859"
       d="m 101,26.1 c 6,8.1 9.1,17.7 10.9,27.5 C 111.2,32.5 97,13 77.5,5.3 67.4,0.8 55.9,0.4 45.1,2.2 32.6,4.7 21.1,11.7 13,21.6 24.8,11.1 39.9,3.2 56,3.6 73.2,4 90.8,11.8 101,26.1 Z" />
    <path
       id="path861"
       d="m 88.7,95.8 c -6.6,3.6 -14.1,6 -21.7,5.6 -5.9,-0.4 -10.3,-5.3 -16.1,-5.8 -2.3,-0.2 -4.6,0.5 -6.8,0.8 2.5,-1.3 5,-2.9 7.8,-2.7 3.7,0.2 6.8,2.6 10.2,3.8 10.4,3.7 22.7,0 29.6,-8.6 C 87.3,74.6 81.3,60.6 72.6,48.4 67.3,41.6 60.9,34.7 52.2,32.5 47.7,31.3 42.6,31.2 38.4,33.3 35.3,34.9 34.6,39 36,42 c 4.4,11.1 7.6,23 7.4,35 -0.2,3.4 -0.5,7 -2.4,10 -3.5,4.1 -10,4.8 -14.5,2 4.2,-0.2 9.3,1.4 12.6,-2 3,-3.9 3,-9.2 2.3,-13.9 C 40,61.4 37.1,49.8 31.8,39.3 29.5,34.9 26.9,30.3 22.4,27.8 18.9,25.7 14.7,27.4 11.5,29.4 6.3,33.3 3.2,39.6 1.9,45.8 c -2,13.4 -0.4,27.8 6.9,39.5 7.1,12 19.4,20 32.2,24.8 13.4,4.4 28.7,4 41.1,-2.9 13.4,-6.9 23.4,-19.6 27.6,-34 -5.4,8.7 -11.9,17.3 -21,22.6 z m -32.5,-32 c 1.3,0 2.4,1.1 2.4,2.4 0,1.3 -1.1,2.4 -2.4,2.4 -1.3,0 -2.4,-1.1 -2.4,-2.4 0,-1.3 1,-2.4 2.4,-2.4 z m 23.4,46.5 c 3.1,5.6 4.5,12.1 3.8,18.4 0,0.4 -0.7,0.5 -0.8,0.1 -0.9,-2.1 -1.2,-4.3 -2.1,-6.3 -1.6,-2.4 -4.8,-2.3 -7.3,-1.8 -4.8,2.6 -5.4,9.9 -1.7,13.7 6.3,7.7 20.3,5 23.8,-4.2 3.5,-9.7 2,-20.3 0.1,-30.2 -4.3,4.8 -10,7.9 -15.8,10.3 z" />
  </g>
  <g
     transform="translate(-1.1069543,-1.1997683)"
     id="g869"
     fill="#e37863">
    <path
       id="path865"
       d="m 264.6,52.5 h -4.2 l -1.5,8.4 h 4.3 c 1.9,0 3.3,-0.4 4.2,-1.3 0.9,-0.9 1.4,-2.1 1.3,-3.7 -0.1,-2.2 -1.5,-3.4 -4.1,-3.4 z m 30.1,0.7 c -0.6,-0.5 -1.6,-0.7 -2.9,-0.7 h -3.2 l -1.4,7.7 h 3.2 c 1.8,0 3.1,-0.4 4,-1.2 0.9,-0.8 1.3,-2 1.3,-3.6 -0.1,-1 -0.4,-1.7 -1,-2.2 z m 133.6,-0.7 h -4.2 l -1.5,8.4 h 4.3 c 1.9,0 3.3,-0.4 4.2,-1.3 0.9,-0.9 1.4,-2.1 1.3,-3.7 -0.1,-2.2 -1.4,-3.4 -4.1,-3.4 z M 194.1,52 c -1.3,0 -2.5,0.3 -3.7,0.9 -1.1,0.6 -2.1,1.5 -2.9,2.6 -0.8,1.1 -1.5,2.4 -1.9,4 -0.5,1.5 -0.7,3.2 -0.6,5 0,2.3 0.6,4.1 1.7,5.4 1.1,1.3 2.6,1.9 4.4,1.9 3.1,0 5.4,-1.3 7.1,-3.9 0.8,-1.2 1.4,-2.6 1.8,-4.1 0.4,-1.5 0.6,-3.1 0.6,-4.7 0,-2.4 -0.6,-4.2 -1.7,-5.4 -1.3,-1.1 -2.8,-1.7 -4.8,-1.7 z" />
    <path
       id="path867"
       d="M 504.9,39.1 C 499.2,37 493,37 487,37.1 H 140 c -3.6,0 -7.1,0.2 -10.7,0.4 4.1,0.5 8.8,0.6 12.3,3 1.5,1 2.2,2.9 1.9,4.6 -2.5,14.5 -5.1,28.9 -7.4,43.3 121.7,0.1 243.3,0 365,0 2.8,-14.2 4.8,-28.5 7.7,-42.7 0.5,-2.3 -0.4,-4.7 -2.3,-6 -0.5,-0.2 -1,-0.4 -1.6,-0.6 z M 175.3,54.8 c -1.3,-1 -2.6,-1.7 -3.9,-2.1 -1.3,-0.5 -2.7,-0.7 -4.2,-0.7 -1.5,0 -3,0.3 -4.3,0.9 -1.3,0.6 -2.4,1.5 -3.4,2.6 -1,1.1 -1.7,2.4 -2.2,3.9 -0.5,1.5 -0.8,3.2 -0.8,5 0,2.3 0.7,4.1 2,5.4 1.3,1.3 3.1,1.9 5.3,1.9 1.4,0 2.9,-0.3 4.4,-0.8 1.5,-0.5 3.1,-1.3 4.9,-2.3 l -1.2,6.6 c -3.7,1.3 -7,2 -10.1,2 -2.1,0 -3.9,-0.3 -5.6,-0.9 -1.7,-0.6 -3.1,-1.4 -4.2,-2.5 -1.2,-1.1 -2,-2.3 -2.7,-3.8 -0.6,-1.5 -1,-3.1 -1,-4.9 0,-2.4 0.3,-4.7 1,-6.8 0.7,-2.1 1.8,-4 3.3,-5.8 1.7,-2 3.8,-3.6 6.2,-4.7 2.4,-1.1 5.1,-1.7 7.9,-1.7 3.1,0 6.2,0.7 9.5,2.2 z m 32.2,10.5 c -0.7,2.1 -1.7,4.1 -3.1,5.8 -3.4,4.2 -8.1,6.3 -14.2,6.3 -2,0 -3.9,-0.3 -5.5,-0.9 -1.6,-0.6 -3,-1.4 -4.2,-2.5 -1.2,-1.1 -2.1,-2.3 -2.7,-3.8 -0.6,-1.5 -1,-3.1 -1,-4.8 0,-2.5 0.3,-4.8 1,-6.9 0.7,-2.1 1.7,-4.1 3.1,-5.8 3.3,-4.2 8.1,-6.3 14.2,-6.3 2,0 3.9,0.3 5.5,0.9 1.7,0.6 3.1,1.4 4.2,2.5 1.1,1.1 2.1,2.3 2.7,3.8 0.6,1.5 1,3.1 1,4.8 0.1,2.5 -0.3,4.8 -1,6.9 z m 35.1,11.6 h -7.3 l 3.9,-22.1 -10.1,16.3 H 225 l -4.4,-16.3 -3.9,22.1 h -7.3 L 214.7,47 h 9.5 l 4.1,15.9 9.8,-15.9 h 9.8 z m 30.7,-13.7 c -1.3,1.2 -2.7,2.1 -4.4,2.5 -1.7,0.5 -3.7,0.7 -6,0.7 h -5.1 L 256,76.9 h -7.7 L 253.6,47 h 12.8 c 3.2,0 5.7,0.7 7.5,2.2 1.7,1.4 2.6,3.4 2.7,5.9 0,1.6 -0.2,3.1 -0.8,4.5 -0.6,1.4 -1.5,2.6 -2.5,3.6 z m 25.5,1.4 c 0.7,0.9 1.3,2.2 1.8,3.8 l 2.7,8.5 h -7.7 l -2.4,-7.4 c -0.2,-0.7 -0.5,-1.3 -0.7,-1.8 -0.3,-0.5 -0.6,-0.9 -0.9,-1.2 -0.3,-0.3 -0.8,-0.5 -1.2,-0.7 -0.5,-0.1 -1,-0.2 -1.7,-0.2 h -2.5 l -2,11.3 h -7.7 L 281.8,47 h 11.4 c 3.3,0 5.8,0.6 7.5,1.8 1.7,1.2 2.6,3 2.6,5.4 0,1.2 -0.1,2.3 -0.5,3.3 -0.3,1 -0.8,1.9 -1.4,2.6 -0.6,0.8 -1.4,1.4 -2.3,1.8 -0.9,0.5 -1.9,0.8 -3.1,0.9 1.2,0.3 2.1,0.9 2.8,1.8 z m 30.7,-6.2 -1,5.8 H 316.2 L 315,71 h 13.5 l -1,5.8 h -21.2 l 5.3,-29.9 h 20.8 l -1,5.8 h -13.1 l -1,5.6 h 12.2 z m 13.7,-1.3 c 0.6,0.4 1.5,0.7 2.8,1 l 3.2,0.8 c 2.6,0.7 4.6,1.6 5.8,2.8 1.3,1.2 1.9,2.9 2,4.9 0,1.6 -0.3,3 -0.8,4.3 -0.6,1.3 -1.5,2.4 -2.6,3.4 -1.2,0.9 -2.6,1.7 -4.2,2.2 -1.6,0.5 -3.6,0.8 -5.7,0.8 -1.9,0 -3.8,-0.2 -5.7,-0.5 -1.9,-0.4 -3.8,-0.9 -5.7,-1.6 l 1.1,-6.5 c 3.6,2.1 7,3.1 10.2,3.1 1.9,0 3.3,-0.4 4.3,-1.1 1,-0.8 1.5,-1.7 1.5,-2.7 0,-0.9 -0.4,-1.5 -1,-1.9 -0.7,-0.4 -1.7,-0.7 -3,-1 l -3.2,-0.8 c -4.6,-1.1 -7,-3.7 -7,-7.5 0,-1.5 0.2,-2.9 0.8,-4.2 0.6,-1.3 1.4,-2.3 2.6,-3.2 1.1,-0.9 2.5,-1.6 4.1,-2.1 1.6,-0.5 3.5,-0.8 5.5,-0.8 3.3,0 6.6,0.5 10.2,1.5 l -1.1,6.3 c -3.1,-1.5 -6,-2.2 -8.8,-2.2 -2,0 -3.5,0.3 -4.5,0.9 -1,0.6 -1.5,1.4 -1.5,2.5 -0.2,0.7 0.1,1.3 0.7,1.6 z m 40.1,-2.9 c -3.1,-1.5 -6,-2.2 -8.8,-2.2 -2,0 -3.5,0.3 -4.5,0.9 -1,0.6 -1.5,1.4 -1.5,2.5 0,0.8 0.3,1.4 0.9,1.7 0.6,0.4 1.5,0.7 2.8,1 l 3.2,0.8 c 2.6,0.7 4.6,1.6 5.8,2.8 1.3,1.2 1.9,2.9 2,4.9 0,1.6 -0.3,3 -0.8,4.3 -0.6,1.3 -1.5,2.4 -2.6,3.4 -1.2,0.9 -2.6,1.7 -4.2,2.2 -1.6,0.5 -3.6,0.8 -5.7,0.8 -1.9,0 -3.8,-0.2 -5.7,-0.5 -1.9,-0.4 -3.8,-0.9 -5.7,-1.6 l 1.1,-6.5 c 3.6,2.1 7,3.1 10.2,3.1 1.9,0 3.3,-0.4 4.3,-1.1 1,-0.8 1.5,-1.7 1.5,-2.7 0,-0.9 -0.4,-1.5 -1,-1.9 -0.7,-0.4 -1.7,-0.7 -3,-1 l -3.2,-0.8 c -4.6,-1.1 -7,-3.7 -7,-7.5 0,-1.5 0.2,-2.9 0.8,-4.2 0.6,-1.3 1.4,-2.3 2.6,-3.2 1.1,-0.9 2.5,-1.6 4.1,-2.1 1.6,-0.5 3.5,-0.8 5.5,-0.8 3.3,0 6.6,0.5 10.2,1.5 z m 23.6,19.7 c -0.3,2 -0.9,3.7 -1.6,5.1 -0.7,1.4 -1.7,2.6 -2.8,3.4 -1.1,0.9 -2.5,1.5 -4.1,1.9 -1.6,0.4 -3.5,0.6 -5.6,0.6 h -1.6 l 1,-5.8 h 1.2 c 1.6,0 2.9,-0.5 3.9,-1.4 1,-0.9 1.6,-2.2 1.9,-3.9 l 4.8,-27 h 7.7 z M 437,63.2 c -1.3,1.2 -2.7,2.1 -4.4,2.5 -1.7,0.5 -3.7,0.7 -6,0.7 h -5.1 l -1.8,10.4 H 412 l 5.3,-29.9 h 12.8 c 3.2,0 5.7,0.7 7.5,2.2 1.7,1.4 2.6,3.4 2.7,5.9 0,1.6 -0.2,3.1 -0.8,4.5 -0.6,1.5 -1.4,2.7 -2.5,3.7 z m 28.3,-10.4 h -13.1 l -1,5.6 h 12.3 l -1,5.8 H 450.2 L 449,71 h 13.5 l -1,5.8 h -21.2 l 5.3,-29.9 h 20.8 z m 11.6,17.1 c 1.3,1.3 3.1,2 5.4,2 1.5,0 3,-0.2 4.5,-0.6 l 1,-5.8 h -4.7 l 0.9,-5.1 h 12 l -2.5,14.4 c -2,1 -4,1.7 -6.1,2.1 -2.1,0.4 -4.3,0.7 -6.7,0.7 -2.2,0 -4.1,-0.3 -5.8,-0.9 -1.7,-0.6 -3.1,-1.4 -4.3,-2.4 -1.2,-1.1 -2.1,-2.3 -2.7,-3.8 -0.6,-1.5 -1,-3.1 -1,-5 -0.1,-4.9 1.4,-9.1 4.3,-12.6 3.6,-4.2 8.6,-6.4 15,-6.4 1.8,0 3.6,0.2 5.4,0.6 1.8,0.4 3.6,0.9 5.4,1.7 l -1.1,6.2 c -1.6,-1 -3.2,-1.7 -4.8,-2.1 -1.6,-0.5 -3.1,-0.7 -4.7,-0.7 -1.7,0 -3.3,0.3 -4.8,0.9 -1.4,0.6 -2.6,1.5 -3.6,2.6 -1,1.1 -1.8,2.4 -2.3,3.9 -0.5,1.5 -0.8,3.1 -0.8,4.9 0.1,2.2 0.7,4.1 2,5.4 z" />
  </g>
  <g
     transform="translate(-1.1069543,-1.1997683)"
     id="g873"
     fill="#7f7f7f">
    <path
       id="path871"
       d="m 141.2,99.6 0.4,10 4.2,-10 h 3.3 l 0.4,10 4.1,-10 h 3.4 l -5.8,13.7 h -3.9 l -0.4,-10.4 -4.4,10.4 h -4 L 138,99.6 Z m 21.6,0 -2.6,13.7 h -3.5 l 2.6,-13.7 z m 14.2,0 -0.5,2.7 H 172 l -2.1,11.1 h -3.5 l 2.1,-11.1 H 164 l 0.5,-2.7 z m 5.2,0 -1,5.2 h 5.1 l 1,-5.2 h 3.5 l -2.6,13.7 h -3.5 l 1.1,-5.8 h -5.1 l -1.1,5.8 h -3.5 l 2.6,-13.7 z m 29.2,0 -0.5,2.7 h -4.5 l -2.1,11.1 h -3.5 l 2.1,-11.1 h -4.5 l 0.5,-2.7 z m 5.3,0 -1,5.2 h 5.1 l 1,-5.2 h 3.5 l -2.6,13.7 h -3.5 l 1.1,-5.8 h -5.1 l -1.1,5.8 h -3.5 l 2.6,-13.7 z m 21.3,0 -0.5,2.7 h -5.9 l -0.5,2.6 h 5.5 l -0.5,2.7 h -5.5 l -0.6,3.1 h 6.1 l -0.5,2.7 H 226 l 2.6,-13.7 h 9.4 z m 19,0 -0.5,2.7 h -5.9 l -0.5,2.6 h 5.5 l -0.5,2.7 h -5.5 l -1.1,5.8 H 245 l 2.6,-13.7 h 9.4 z m 9.3,-0.3 c 0.9,0 1.7,0.1 2.5,0.4 0.8,0.3 1.4,0.7 1.9,1.1 0.5,0.5 0.9,1.1 1.2,1.7 0.3,0.7 0.4,1.4 0.4,2.2 0,1.1 -0.2,2.2 -0.5,3.2 -0.3,1 -0.8,1.9 -1.5,2.7 -1.5,1.9 -3.7,2.9 -6.5,2.9 -0.9,0 -1.7,-0.1 -2.5,-0.4 -0.7,-0.3 -1.4,-0.7 -1.9,-1.1 -0.5,-0.5 -0.9,-1.1 -1.2,-1.7 -0.3,-0.7 -0.4,-1.4 -0.4,-2.2 0,-1.1 0.2,-2.2 0.5,-3.2 0.3,-1 0.8,-1.9 1.5,-2.7 1.6,-1.9 3.7,-2.9 6.5,-2.9 z m 2.2,5.9 c 0,-1.1 -0.2,-1.9 -0.7,-2.5 -0.5,-0.6 -1.2,-0.8 -2.1,-0.8 -0.6,0 -1.1,0.1 -1.7,0.4 -0.6,0.3 -1,0.7 -1.3,1.2 -0.4,0.5 -0.7,1.1 -0.9,1.8 -0.2,0.7 -0.3,1.5 -0.3,2.3 0,1.1 0.2,1.9 0.7,2.5 0.5,0.6 1.1,0.9 2,0.9 1.4,0 2.5,-0.6 3.2,-1.8 0.4,-0.6 0.6,-1.2 0.8,-1.9 0.2,-0.7 0.3,-1.3 0.3,-2.1 z m 8.2,8.1 h -3.5 l 2.6,-13.7 h 5.1 c 1.5,0 2.6,0.3 3.4,0.8 0.8,0.6 1.1,1.4 1.1,2.5 0,0.6 -0.1,1.1 -0.2,1.5 -0.2,0.5 -0.4,0.9 -0.7,1.2 -0.3,0.3 -0.6,0.6 -1.1,0.8 -0.5,0.2 -0.9,0.3 -1.4,0.4 0.5,0.1 0.9,0.4 1.2,0.8 0.3,0.4 0.6,1 0.8,1.8 l 1.1,3.9 h -3.4 l -1,-3.4 c -0.1,-0.3 -0.2,-0.6 -0.3,-0.8 -0.1,-0.2 -0.2,-0.4 -0.4,-0.6 -0.2,-0.2 -0.3,-0.2 -0.5,-0.3 -0.2,-0.1 -0.5,-0.1 -0.8,-0.1 h -1.1 z m 2.9,-7.6 c 0.8,0 1.4,-0.2 1.8,-0.6 0.4,-0.4 0.6,-0.9 0.6,-1.6 0,-0.5 -0.1,-0.8 -0.4,-1 -0.3,-0.2 -0.7,-0.3 -1.3,-0.3 h -1.4 l -0.7,3.5 z m 18.6,7 c -1.7,0.6 -3.2,0.9 -4.6,0.9 -0.9,0 -1.8,-0.1 -2.5,-0.4 -0.7,-0.3 -1.4,-0.7 -1.9,-1.1 -0.5,-0.5 -0.9,-1.1 -1.2,-1.8 -0.3,-0.7 -0.4,-1.4 -0.4,-2.2 0,-1.1 0.2,-2.1 0.5,-3.1 0.3,-1 0.8,-1.9 1.5,-2.7 0.8,-0.9 1.7,-1.7 2.8,-2.2 1.1,-0.5 2.3,-0.8 3.6,-0.8 1.4,0 2.8,0.3 4.2,1 l -0.6,2.8 c -0.6,-0.4 -1.2,-0.8 -1.7,-1 -0.6,-0.2 -1.2,-0.3 -1.9,-0.3 -0.7,0 -1.3,0.1 -1.9,0.4 -0.6,0.3 -1.1,0.7 -1.5,1.2 -0.4,0.5 -0.8,1.1 -1,1.8 -0.3,0.7 -0.4,1.5 -0.4,2.3 0,1.1 0.3,1.9 0.9,2.5 0.6,0.6 1.4,0.9 2.4,0.9 0.7,0 1.3,-0.1 2,-0.4 0.7,-0.2 1.4,-0.6 2.2,-1 z m 14.8,-13.1 -0.5,2.7 h -5.9 l -0.5,2.6 h 5.5 l -0.5,2.7 h -5.5 l -0.6,3.1 h 6.1 l -0.5,2.7 H 301 l 2.6,-13.7 h 9.4 z m 15.7,-0.3 c 0.9,0 1.7,0.1 2.5,0.4 0.8,0.3 1.4,0.7 1.9,1.1 0.5,0.5 0.9,1.1 1.2,1.7 0.3,0.7 0.4,1.4 0.4,2.2 0,1.1 -0.2,2.2 -0.5,3.2 -0.3,1 -0.8,1.9 -1.5,2.7 -1.5,1.9 -3.7,2.9 -6.5,2.9 -0.9,0 -1.7,-0.1 -2.5,-0.4 -0.7,-0.3 -1.4,-0.7 -1.9,-1.1 -0.5,-0.5 -0.9,-1.1 -1.2,-1.7 -0.3,-0.7 -0.4,-1.4 -0.4,-2.2 0,-1.1 0.2,-2.2 0.5,-3.2 0.3,-1 0.8,-1.9 1.5,-2.7 1.6,-1.9 3.7,-2.9 6.5,-2.9 z m 2.2,5.9 c 0,-1.1 -0.2,-1.9 -0.7,-2.5 -0.5,-0.6 -1.2,-0.8 -2.1,-0.8 -0.6,0 -1.1,0.1 -1.7,0.4 -0.6,0.3 -1,0.7 -1.3,1.2 -0.4,0.5 -0.7,1.1 -0.9,1.8 -0.2,0.7 -0.3,1.5 -0.3,2.3 0,1.1 0.2,1.9 0.7,2.5 0.5,0.6 1.1,0.9 2,0.9 1.4,0 2.5,-0.6 3.2,-1.8 0.4,-0.6 0.6,-1.2 0.8,-1.9 0.2,-0.7 0.3,-1.3 0.3,-2.1 z m 16.7,-5.6 -0.5,2.7 h -5.9 l -0.5,2.6 h 5.5 l -0.5,2.7 h -5.5 l -1.1,5.8 h -3.5 l 2.6,-13.7 h 9.4 z m 10.4,11.2 -1.3,2.5 h -3.6 l 7.6,-13.7 h 4 l 2.4,13.7 h -3.3 l -0.4,-2.5 z m 4.9,-2.5 -0.8,-5.3 -2.8,5.3 z m 12.5,-8.7 3.1,9.5 1.8,-9.5 h 3.3 l -2.6,13.7 h -3.9 l -3.1,-9.5 -1.8,9.5 h -3.3 l 2.6,-13.7 z m 27.3,0 -0.5,2.7 h -5.9 l -0.5,2.6 h 5.5 l -0.5,2.7 h -5.5 l -0.6,3.1 h 6.1 l -0.5,2.7 h -9.5 l 2.6,-13.7 h 9.3 z m 6.8,0 -2.1,11.1 h 6.1 l -0.5,2.7 h -9.5 l 2.6,-13.7 h 3.4 z m 17.6,0 -0.5,2.7 h -5.9 l -0.5,2.6 h 5.5 l -0.5,2.7 h -5.5 l -0.6,3.1 h 6.1 l -0.5,2.7 h -9.5 l 2.6,-13.7 h 9.3 z m 9,0 c 1.4,0 2.6,0.3 3.3,1 0.7,0.7 1.2,1.6 1.2,2.7 0,0.7 -0.1,1.4 -0.4,2.1 -0.3,0.6 -0.6,1.2 -1.1,1.7 -0.6,0.6 -1.2,1 -2,1.2 -0.8,0.2 -1.6,0.3 -2.7,0.3 h -2.3 l -0.9,4.8 h -3.5 l 2.6,-13.7 h 5.8 z m -3.5,6.4 h 1.9 c 0.8,0 1.5,-0.2 1.9,-0.6 0.4,-0.4 0.6,-1 0.6,-1.7 0,-1 -0.6,-1.5 -1.8,-1.5 h -1.9 z m 14.7,-6.4 -1,5.2 h 5.1 l 1,-5.2 h 3.5 l -2.6,13.7 h -3.5 l 1.1,-5.8 h -5.1 l -1.1,5.8 h -3.5 l 2.6,-13.7 z m 12.6,11.2 -1.3,2.5 H 455 l 7.6,-13.7 h 4 l 2.4,13.7 h -3.3 l -0.4,-2.5 z m 5,-2.5 -0.8,-5.3 -2.8,5.3 z m 12.5,-8.7 3.1,9.5 1.8,-9.5 h 3.3 l -2.6,13.7 h -3.9 l -3.1,-9.5 -1.8,9.5 h -3.3 l 2.6,-13.7 z m 22.3,0 -0.5,2.7 h -4.5 l -2.1,11.1 h -3.5 l 2.1,-11.1 h -4.5 l 0.5,-2.7 z" />
  </g>
</svg>
