<?xml version="1.0" encoding="UTF-8" standalone="no"?>
<svg
   xmlns:dc="http://purl.org/dc/elements/1.1/"
   xmlns:cc="http://creativecommons.org/ns#"
   xmlns:rdf="http://www.w3.org/1999/02/22-rdf-syntax-ns#"
   xmlns:svg="http://www.w3.org/2000/svg"
   xmlns="http://www.w3.org/2000/svg"
   xmlns:sodipodi="http://sodipodi.sourceforge.net/DTD/sodipodi-0.dtd"
   xmlns:inkscape="http://www.inkscape.org/namespaces/inkscape"
   width="462.08459"
   height="125.17985"
   version="1.1"
   id="svg1462"
   sodipodi:docname="logo.svg"
   viewBox="0 0 508.29305 137.69783"
   inkscape:version="1.0 (4035a4f, 2020-05-01)">
  <metadata
     id="metadata1468">
    <rdf:RDF>
      <cc:Work
         rdf:about="">
        <dc:format>image/svg+xml</dc:format>
        <dc:type
           rdf:resource="http://purl.org/dc/dcmitype/StillImage" />
        <dc:title></dc:title>
      </cc:Work>
    </rdf:RDF>
  </metadata>
  <defs
     id="defs1466" />
  <sodipodi:namedview
     inkscape:document-rotation="0"
     pagecolor="#ffffff"
     bordercolor="#666666"
     borderopacity="1"
     objecttolerance="10"
     gridtolerance="10"
     guidetolerance="10"
     inkscape:pageopacity="0"
     inkscape:pageshadow="2"
     inkscape:window-width="1417"
     inkscape:window-height="748"
     id="namedview1464"
     showgrid="false"
     inkscape:zoom="2.1646365"
     inkscape:cx="259.6364"
     inkscape:cy="128.15715"
     inkscape:window-x="0"
     inkscape:window-y="23"
     inkscape:window-maximized="0"
     inkscape:current-layer="svg1462" />
  <g
     fill="#40a1a2"
     id="g1448"
     transform="translate(-1.1069543,-1.1997683)">
    <path
       d="m 101,26.1 c 6,8.1 9.1,17.7 10.9,27.5 C 111.2,32.5 97,13 77.5,5.3 67.4,0.8 55.9,0.4 45.1,2.2 32.6,4.7 21.1,11.7 13,21.6 24.8,11.1 39.9,3.2 56,3.6 73.2,4 90.8,11.8 101,26.1 Z"
       id="path1444" />
    <path
       d="m 88.7,95.8 c -6.6,3.6 -14.1,6 -21.7,5.6 -5.9,-0.4 -10.3,-5.3 -16.1,-5.8 -2.3,-0.2 -4.6,0.5 -6.8,0.8 2.5,-1.3 5,-2.9 7.8,-2.7 3.7,0.2 6.8,2.6 10.2,3.8 10.4,3.7 22.7,0 29.6,-8.6 C 87.3,74.6 81.3,60.6 72.6,48.4 67.3,41.6 60.9,34.7 52.2,32.5 47.7,31.3 42.6,31.2 38.4,33.3 35.3,34.9 34.6,39 36,42 c 4.4,11.1 7.6,23 7.4,35 -0.2,3.4 -0.5,7 -2.4,10 -3.5,4.1 -10,4.8 -14.5,2 4.2,-0.2 9.3,1.4 12.6,-2 3,-3.9 3,-9.2 2.3,-13.9 C 40,61.4 37.1,49.8 31.8,39.3 29.5,34.9 26.9,30.3 22.4,27.8 18.9,25.7 14.7,27.4 11.5,29.4 6.3,33.3 3.2,39.6 1.9,45.8 c -2,13.4 -0.4,27.8 6.9,39.5 7.1,12 19.4,20 32.2,24.8 13.4,4.4 28.7,4 41.1,-2.9 13.4,-6.9 23.4,-19.6 27.6,-34 -5.4,8.7 -11.9,17.3 -21,22.6 z m -32.5,-32 c 1.3,0 2.4,1.1 2.4,2.4 0,1.3 -1.1,2.4 -2.4,2.4 -1.3,0 -2.4,-1.1 -2.4,-2.4 0,-1.3 1,-2.4 2.4,-2.4 z m 23.4,46.5 c 3.1,5.6 4.5,12.1 3.8,18.4 0,0.4 -0.7,0.5 -0.8,0.1 -0.9,-2.1 -1.2,-4.3 -2.1,-6.3 -1.6,-2.4 -4.8,-2.3 -7.3,-1.8 -4.8,2.6 -5.4,9.9 -1.7,13.7 6.3,7.7 20.3,5 23.8,-4.2 3.5,-9.7 2,-20.3 0.1,-30.2 -4.3,4.8 -10,7.9 -15.8,10.3 z"
       id="path1446" />
  </g>
  <g
     fill="#e37863"
     id="g1454"
     transform="translate(-1.1069543,-1.1997683)">
    <path
       d="m 418.9,53.5 h -4.2 l -1.5,8.4 h 4.3 c 1.9,0 3.3,-0.4 4.2,-1.3 0.9,-0.9 1.4,-2.1 1.3,-3.7 -0.1,-2.2 -1.4,-3.4 -4.1,-3.4 z m -150.3,0 h -4.2 l -1.5,8.4 h 4.3 c 1.9,0 3.3,-0.4 4.2,-1.3 0.9,-0.9 1.4,-2.1 1.3,-3.7 -0.1,-2.2 -1.5,-3.4 -4.1,-3.4 z m 30.1,0.7 c -0.6,-0.5 -1.6,-0.7 -2.9,-0.7 h -3.2 l -1.4,7.7 h 3.2 c 1.8,0 3.1,-0.4 4,-1.2 0.9,-0.8 1.3,-2 1.3,-3.6 -0.1,-1 -0.4,-1.7 -1,-2.2 z M 198.1,53 c -1.3,0 -2.5,0.3 -3.7,0.9 -1.1,0.6 -2.1,1.5 -2.9,2.6 -0.8,1.1 -1.5,2.4 -1.9,4 -0.5,1.5 -0.7,3.2 -0.6,5 0,2.3 0.6,4.1 1.7,5.4 1.1,1.3 2.6,1.9 4.4,1.9 3.1,0 5.4,-1.3 7.1,-3.9 0.8,-1.2 1.4,-2.6 1.8,-4.1 0.4,-1.5 0.6,-3.1 0.6,-4.7 0,-2.4 -0.6,-4.2 -1.7,-5.4 -1.3,-1.1 -2.8,-1.7 -4.8,-1.7 z"
       id="path1450" />
    <path
       sodipodi:nodetypes="ccsccccccc"
       style="fill:#e37863;fill-opacity:1"
       d="M 504.9,39.1 C 499.2,37 493,37 487,37.1 H 140 c -3.6,0 -7.1,0.2 -10.7,0.4 4.1,0.5 8.8,0.6 12.3,3 1.5,1 2.2,2.9 1.9,4.6 -2.5,14.5 -5.1,28.9 -7.4,43.3 121.7,0.1 243.3,0 365,0 3,-15.3 5.1,-30.7 8.3,-45.9 -1.3,-1.2 -2.6,-2.8 -4.5,-3.4 z"
       id="path1452" />
  </g>
  <g
     fill="#7f7f7f"
     id="g1458"
     transform="translate(-1.1069543,-1.1997683)">
    <path
       d="m 141.5,99.1 0.4,10.6 4.5,-10.6 h 3.5 l 0.5,10.6 4.3,-10.6 h 3.7 l -6.1,14.6 H 148 l -0.5,-11.1 -4.6,11.1 h -4.3 L 138,99.1 Z m 22.1,0 -2.8,14.6 h -3.7 l 2.8,-14.6 z m 14.1,0 -0.5,2.8 h -4.7 l -2.2,11.7 h -3.7 l 2.2,-11.7 H 164 l 0.5,-2.8 z m 4.7,0 -1.1,5.6 h 5.4 l 1.1,-5.6 h 3.7 l -2.8,14.6 H 185 l 1.2,-6.2 h -5.4 l -1.2,6.2 h -3.7 l 2.8,-14.6 z m 29.2,0 -0.6,2.9 h -4.7 l -2.2,11.7 h -3.7 l 2.2,-11.7 h -4.7 l 0.5,-2.8 h 13.2 z m 4.7,0 -1.1,5.6 h 5.4 l 1.1,-5.6 h 3.7 l -2.8,14.6 h -3.7 l 1.2,-6.2 h -5.4 l -1.2,6.2 h -3.7 l 2.8,-14.6 z m 21.7,0 -0.5,2.8 h -6.2 l -0.5,2.7 h 5.9 l -0.5,2.8 h -5.9 l -0.6,3.3 h 6.4 l -0.5,2.8 h -10.1 l 2.8,-14.6 h 9.7 z m 18.4,0 -0.5,2.8 h -6.2 l -0.5,2.7 h 5.9 l -0.5,2.8 h -5.9 l -1.2,6.2 h -3.7 L 246.6,99 h 9.8 z m 9,-0.2 c 1,0 1.8,0.1 2.6,0.4 0.8,0.3 1.4,0.7 2,1.2 0.6,0.5 1,1.1 1.3,1.9 0.3,0.7 0.4,1.5 0.4,2.4 0,1.2 -0.2,2.3 -0.5,3.4 -0.3,1.1 -0.9,2 -1.5,2.8 -1.6,2.1 -3.9,3.1 -6.8,3.1 -1,0 -1.8,-0.1 -2.6,-0.4 -0.8,-0.3 -1.4,-0.7 -2,-1.2 -0.5,-0.5 -1,-1.1 -1.3,-1.9 -0.3,-0.7 -0.4,-1.5 -0.4,-2.4 0,-1.2 0.2,-2.3 0.5,-3.4 0.4,-1 0.9,-2 1.5,-2.8 1.6,-2.1 3.8,-3.1 6.8,-3.1 z m 2.4,6.2 c 0,-1.2 -0.3,-2 -0.8,-2.6 -0.5,-0.6 -1.2,-0.9 -2.2,-0.9 -0.6,0 -1.2,0.2 -1.8,0.5 -0.5,0.3 -1,0.7 -1.4,1.3 -0.4,0.5 -0.7,1.2 -1,1.9 -0.2,0.7 -0.4,1.6 -0.4,2.5 0,1.1 0.3,2 0.8,2.6 0.5,0.6 1.2,0.9 2.1,0.9 1.5,0 2.6,-0.6 3.4,-1.9 0.4,-0.6 0.7,-1.3 0.9,-2 0.2,-0.7 0.4,-1.5 0.4,-2.3 z m 7.8,8.6 h -3.7 l 2.8,-14.6 h 5.4 c 1.6,0 2.8,0.3 3.6,0.9 0.8,0.6 1.2,1.5 1.2,2.6 0,0.6 -0.1,1.1 -0.2,1.6 -0.2,0.5 -0.4,0.9 -0.7,1.3 -0.3,0.4 -0.7,0.7 -1.1,0.9 -0.4,0.2 -0.9,0.4 -1.5,0.4 0.5,0.1 1,0.4 1.3,0.8 0.3,0.4 0.6,1.1 0.8,1.9 l 1.2,4.1 H 281 l -1.1,-3.6 -0.3,-0.9 c -0.1,-0.2 -0.3,-0.4 -0.4,-0.6 -0.1,-0.2 -0.4,-0.3 -0.6,-0.3 -0.2,-0.1 -0.5,-0.1 -0.8,-0.1 h -1.2 z m 3.1,-8.1 c 0.8,0 1.5,-0.2 1.9,-0.6 0.4,-0.4 0.6,-1 0.6,-1.7 0,-0.5 -0.1,-0.9 -0.4,-1.1 -0.3,-0.2 -0.8,-0.3 -1.4,-0.3 h -1.5 l -0.7,3.7 z m 18.8,7.4 c -1.8,0.6 -3.4,1 -4.8,1 -1,0 -1.9,-0.1 -2.6,-0.4 -0.8,-0.3 -1.4,-0.7 -2,-1.2 -0.5,-0.5 -1,-1.1 -1.3,-1.9 -0.3,-0.7 -0.4,-1.5 -0.4,-2.4 0,-1.2 0.2,-2.3 0.5,-3.3 0.4,-1 0.9,-2 1.6,-2.8 0.8,-1 1.8,-1.8 3,-2.3 1.2,-0.5 2.4,-0.8 3.8,-0.8 1.5,0 3,0.4 4.5,1.1 l -0.6,3 c -0.6,-0.5 -1.2,-0.8 -1.8,-1 -0.6,-0.2 -1.3,-0.3 -2,-0.3 -0.7,0 -1.4,0.2 -2,0.5 -0.6,0.3 -1.2,0.7 -1.6,1.3 -0.5,0.5 -0.8,1.2 -1.1,1.9 -0.3,0.7 -0.4,1.6 -0.4,2.4 0,1.1 0.3,2 0.9,2.6 0.6,0.6 1.5,1 2.5,1 0.7,0 1.4,-0.1 2.1,-0.4 0.7,-0.3 1.5,-0.6 2.4,-1.1 z m 14.8,-13.9 -0.5,2.8 h -6.2 l -0.5,2.7 h 5.9 l -0.5,2.8 h -5.9 l -0.6,3.3 h 6.4 l -0.5,2.8 h -10.1 l 2.8,-14.6 h 9.7 z m 14.9,-0.2 c 1,0 1.8,0.1 2.6,0.4 0.8,0.3 1.4,0.7 2,1.2 0.6,0.5 1,1.1 1.3,1.9 0.3,0.7 0.4,1.5 0.4,2.4 0,1.2 -0.2,2.3 -0.5,3.4 -0.3,1.1 -0.9,2 -1.5,2.8 -1.6,2.1 -3.9,3.1 -6.8,3.1 -1,0 -1.8,-0.1 -2.6,-0.4 -0.8,-0.3 -1.4,-0.7 -2,-1.2 -0.5,-0.5 -1,-1.1 -1.3,-1.9 -0.3,-0.7 -0.4,-1.5 -0.4,-2.4 0,-1.2 0.2,-2.3 0.5,-3.4 0.4,-1 0.9,-2 1.5,-2.8 1.6,-2.1 3.8,-3.1 6.8,-3.1 z m 2.4,6.2 c 0,-1.2 -0.3,-2 -0.8,-2.6 -0.5,-0.6 -1.2,-0.9 -2.2,-0.9 -0.6,0 -1.2,0.2 -1.8,0.5 -0.5,0.3 -1,0.7 -1.4,1.3 -0.4,0.5 -0.7,1.2 -1,1.9 -0.2,0.7 -0.4,1.6 -0.4,2.5 0,1.1 0.3,2 0.8,2.6 0.5,0.6 1.2,0.9 2.1,0.9 1.5,0 2.6,-0.6 3.4,-1.9 0.4,-0.6 0.7,-1.3 0.9,-2 0.2,-0.7 0.4,-1.5 0.4,-2.3 z m 16.8,-6 -0.5,2.8 h -6.2 l -0.5,2.7 h 5.9 l -0.5,2.8 h -5.9 l -1.2,6.2 h -3.7 L 336.6,99 h 9.8 z m 9.2,11.9 -1.4,2.7 h -3.8 l 8.1,-14.6 h 4.2 l 2.5,14.6 h -3.5 l -0.4,-2.7 z m 5.2,-2.7 -0.9,-5.6 -3,5.6 z m 12.4,-9.2 3.3,10.1 1.9,-10.1 h 3.5 l -2.8,14.6 H 375 l -3.3,-10.1 -1.9,10.1 h -3.5 l 2.8,-14.6 z m 27.3,0 -0.5,2.8 h -6.2 l -0.5,2.7 h 5.9 l -0.5,2.8 h -5.9 l -0.6,3.3 h 6.4 l -0.5,2.8 H 388 l 2.8,-14.6 h 9.7 z m 6.2,0 -2.2,11.7 h 6.4 l -0.5,2.8 H 400.3 L 403.1,99 h 3.6 z m 17.8,0 -0.5,2.9 h -6.2 l -0.5,2.7 h 5.9 l -0.5,2.8 h -5.9 l -0.6,3.3 h 6.4 l -0.5,2.8 H 412 L 414.8,99 h 9.7 z m 8.7,0 c 1.5,0 2.7,0.4 3.5,1.1 0.8,0.7 1.2,1.7 1.2,2.9 0,0.8 -0.1,1.5 -0.4,2.2 -0.3,0.7 -0.7,1.3 -1.2,1.8 -0.6,0.6 -1.3,1 -2.1,1.2 -0.8,0.2 -1.7,0.3 -2.9,0.3 h -2.4 l -1,5.1 h -3.7 L 427,99.1 Z m -3.7,6.8 h 2 c 0.9,0 1.6,-0.2 2,-0.6 0.4,-0.4 0.7,-1 0.7,-1.8 0,-1.1 -0.6,-1.6 -1.9,-1.6 h -2 z m 14.7,-6.8 -1.1,5.6 h 5.4 l 1.1,-5.6 h 3.7 l -2.8,14.6 h -3.7 l 1.2,-6.2 h -5.4 l -1.2,6.2 h -3.7 l 2.8,-14.6 z m 12.5,11.9 -1.4,2.7 h -3.8 l 8.1,-14.6 h 4.2 l 2.5,14.6 h -3.5 l -0.4,-2.7 z m 5.3,-2.7 -0.9,-5.6 -3,5.6 z m 12.4,-9.2 3.3,10.1 1.9,-10.1 h 3.5 l -2.8,14.6 h -4.1 l -3.3,-10.1 -1.9,10.1 h -3.5 l 2.8,-14.6 z m 22.8,0 -0.5,2.8 H 492 l -2.2,11.7 H 486 l 2.2,-11.7 h -4.7 l 0.5,-2.8 z"
       id="path1456" />
  </g>
  <g
     style="font-style:oblique;font-variant:normal;font-weight:bold;font-stretch:normal;font-size:41.0667px;line-height:1.25;font-family:'DejaVu Sans';-inkscape-font-specification:'DejaVu Sans, Bold Oblique';font-variant-ligatures:normal;font-variant-caps:normal;font-variant-numeric:normal;font-variant-east-asian:normal;word-spacing:0px;opacity:1;fill:#ffffff;fill-opacity:1;stroke-width:1.1"
     id="text847"
     aria-label="COMPRESS GIF">
    <path
       id="path901"
       style="font-style:oblique;font-variant:normal;font-weight:bold;font-stretch:normal;font-size:41.0667px;font-family:'DejaVu Sans';-inkscape-font-specification:'DejaVu Sans, Bold Oblique';font-variant-ligatures:normal;font-variant-caps:normal;font-variant-numeric:normal;font-variant-east-asian:normal;fill:#ffffff;fill-opacity:1;stroke-width:1.1"
       d="m 174.71531,75.406785 q -2.76719,0.982553 -5.3138,1.483856 -2.54662,0.501302 -4.83256,0.501302 -6.03568,0 -9.64506,-3.308596 -3.60938,-3.308597 -3.60938,-8.762768 0,-3.589325 1.14297,-6.757557 1.14297,-3.188284 3.36876,-5.815109 2.62682,-3.088023 6.31641,-4.752348 3.70964,-1.664324 7.98073,-1.664324 2.32605,0 4.67214,0.561459 2.3461,0.541407 4.7724,1.664324 l -1.24323,6.196099 q -1.925,-1.463803 -3.87005,-2.145575 -1.94506,-0.681771 -4.17084,-0.681771 -4.63204,0 -7.76016,3.569274 -3.12813,3.569273 -3.12813,8.923184 0,3.448961 1.925,5.414067 1.925,1.965106 5.31381,1.965106 2.02526,0 4.29115,-0.721876 2.28594,-0.741928 5.11328,-2.305992 z" />
    <path
       id="path903"
       style="font-style:oblique;font-variant:normal;font-weight:bold;font-stretch:normal;font-size:41.0667px;font-family:'DejaVu Sans';-inkscape-font-specification:'DejaVu Sans, Bold Oblique';font-variant-ligatures:normal;font-variant-caps:normal;font-variant-numeric:normal;font-variant-east-asian:normal;fill:#ffffff;fill-opacity:1;stroke-width:1.1"
       d="m 205.25466,59.144533 q 0,-3.52917 -1.60417,-5.373963 -1.58411,-1.844793 -4.61198,-1.844793 -4.01042,0 -6.73751,3.609378 -2.70703,3.589326 -2.70703,9.003392 0,3.448962 1.58412,5.353911 1.58411,1.90495 4.41146,1.90495 2.30599,0 4.09063,-0.962501 1.80469,-0.982553 3.06797,-2.887503 1.20312,-1.824741 1.84479,-4.11068 0.66172,-2.285939 0.66172,-4.692191 z m -5.09323,-12.813292 q 5.97552,0 9.60495,3.328649 3.64949,3.308596 3.64949,8.662507 0,3.649482 -1.12292,6.897922 -1.10287,3.24844 -3.22839,5.835161 -2.60677,3.188284 -6.17605,4.7724 -3.54922,1.564063 -8.20131,1.564063 -5.95547,0 -9.5849,-3.308596 -3.62943,-3.308597 -3.62943,-8.682559 0,-3.669534 1.10287,-6.917975 1.10286,-3.24844 3.24844,-5.855213 2.56667,-3.168231 6.11589,-4.732295 3.56927,-1.564064 8.22136,-1.564064 z" />
    <path
       id="path905"
       style="font-style:oblique;font-variant:normal;font-weight:bold;font-stretch:normal;font-size:41.0667px;font-family:'DejaVu Sans';-inkscape-font-specification:'DejaVu Sans, Bold Oblique';font-variant-ligatures:normal;font-variant-caps:normal;font-variant-numeric:normal;font-variant-east-asian:normal;fill:#ffffff;fill-opacity:1;stroke-width:1.1"
       d="m 221.57707,46.872648 h 9.48464 l 3.85001,15.901315 10.10625,-15.901315 h 9.86564 l -5.83516,29.937784 h -7.31902 l 4.2711,-22.097413 -10.38699,16.342461 h -4.15078 l -4.13074,-16.342461 -4.27109,22.097413 h -7.31902 z" />
    <path
       id="path907"
       style="font-style:oblique;font-variant:normal;font-weight:bold;font-stretch:normal;font-size:41.0667px;font-family:'DejaVu Sans';-inkscape-font-specification:'DejaVu Sans, Bold Oblique';font-variant-ligatures:normal;font-variant-caps:normal;font-variant-numeric:normal;font-variant-east-asian:normal;fill:#ffffff;fill-opacity:1;stroke-width:1.1"
       d="m 262.48335,46.872648 h 12.81329 q 4.71225,0 7.35912,2.165626 2.66693,2.145575 2.66693,5.975526 0,2.346096 -0.88229,4.471618 -0.88229,2.105471 -2.52656,3.689587 -1.78464,1.704428 -4.25105,2.48646 -2.46641,0.76198 -6.1961,0.76198 h -5.09323 l -2.00521,10.386987 h -7.72006 z m 6.6573,5.594536 -1.64427,8.361725 h 4.27109 q 2.72709,0 4.17084,-1.283334 1.44375,-1.283335 1.44375,-3.729691 0,-1.62422 -1.04271,-2.48646 -1.02266,-0.86224 -2.96771,-0.86224 z" />
    <path
       id="path909"
       style="font-style:oblique;font-variant:normal;font-weight:bold;font-stretch:normal;font-size:41.0667px;font-family:'DejaVu Sans';-inkscape-font-specification:'DejaVu Sans, Bold Oblique';font-variant-ligatures:normal;font-variant-caps:normal;font-variant-numeric:normal;font-variant-east-asian:normal;fill:#ffffff;fill-opacity:1;stroke-width:1.1"
       d="m 300.94328,60.147138 q 2.62683,0 3.97032,-1.223178 1.36354,-1.223178 1.36354,-3.589326 0,-1.483856 -0.94245,-2.165627 -0.92239,-0.701823 -2.9276,-0.701823 h -3.18829 l -1.52396,7.679954 z m -4.27109,5.333858 -2.22579,11.329436 h -7.72005 l 5.83516,-29.937784 h 11.40964 q 4.93282,0 7.47943,1.844793 2.54662,1.844793 2.54662,5.434119 0,3.62943 -2.00521,5.975526 -2.00521,2.346095 -5.43412,2.686981 1.56407,0.320834 2.60677,1.604168 1.04271,1.263282 1.82475,3.890107 l 2.54661,8.50209 h -7.67995 l -2.24584,-7.439329 q -0.68177,-2.225783 -1.66432,-3.047919 -0.9625,-0.842188 -2.80729,-0.842188 z" />
    <path
       id="path911"
       style="font-style:oblique;font-variant:normal;font-weight:bold;font-stretch:normal;font-size:41.0667px;font-family:'DejaVu Sans';-inkscape-font-specification:'DejaVu Sans, Bold Oblique';font-variant-ligatures:normal;font-variant-caps:normal;font-variant-numeric:normal;font-variant-east-asian:normal;fill:#ffffff;fill-opacity:1;stroke-width:1.1"
       d="m 324.16362,46.872648 h 20.81408 l -1.14297,5.835161 h -13.09402 l -1.08282,5.574483 h 12.33204 l -1.16302,5.835161 h -12.31199 l -1.32343,6.857818 h 13.51511 l -1.10287,5.835161 h -21.27527 z" />
    <path
       id="path913"
       style="font-style:oblique;font-variant:normal;font-weight:bold;font-stretch:normal;font-size:41.0667px;font-family:'DejaVu Sans';-inkscape-font-specification:'DejaVu Sans, Bold Oblique';font-variant-ligatures:normal;font-variant-caps:normal;font-variant-numeric:normal;font-variant-east-asian:normal;fill:#ffffff;fill-opacity:1;stroke-width:1.1"
       d="m 372.85011,47.815096 -1.24323,6.336464 q -2.26588,-1.122918 -4.47161,-1.664324 -2.20574,-0.561459 -4.31121,-0.561459 -2.8875,0 -4.51172,0.902344 -1.60417,0.902345 -1.60417,2.506513 0,1.022657 0.70183,1.604168 0.72187,0.561459 2.94766,1.102865 l 3.16823,0.782032 q 3.97031,1.002605 5.81511,2.907555 1.86484,1.884897 1.86484,4.892712 0,4.87266 -3.70964,7.820319 -3.68958,2.947658 -9.92579,2.947658 -2.90755,0 -5.79505,-0.541406 -2.86745,-0.541407 -5.61459,-1.604168 l 1.22318,-6.516933 q 2.66693,1.544012 5.17344,2.305992 2.52656,0.76198 4.97292,0.76198 2.64688,0 4.29115,-1.082814 1.66432,-1.082813 1.66432,-2.76719 0,-1.102865 -0.74192,-1.704428 -0.74193,-0.621615 -3.24844,-1.263282 l -3.14818,-0.782032 q -3.48907,-0.86224 -5.1935,-2.727086 -1.70443,-1.864845 -1.70443,-4.832556 0,-4.672139 3.56928,-7.479433 3.58932,-2.827346 9.64506,-2.827346 2.4263,0 4.97292,0.38099 2.56667,0.360938 5.21354,1.102865 z" />
    <path
       id="path915"
       style="font-style:oblique;font-variant:normal;font-weight:bold;font-stretch:normal;font-size:41.0667px;font-family:'DejaVu Sans';-inkscape-font-specification:'DejaVu Sans, Bold Oblique';font-variant-ligatures:normal;font-variant-caps:normal;font-variant-numeric:normal;font-variant-east-asian:normal;fill:#ffffff;fill-opacity:1;stroke-width:1.1"
       d="m 401.00325,47.815096 -1.24323,6.336464 q -2.26589,-1.122918 -4.47162,-1.664324 -2.20573,-0.561459 -4.3112,-0.561459 -2.8875,0 -4.51172,0.902344 -1.60417,0.902345 -1.60417,2.506513 0,1.022657 0.70182,1.604168 0.72188,0.561459 2.94766,1.102865 l 3.16823,0.782032 q 3.97032,1.002605 5.81511,2.907555 1.86485,1.884897 1.86485,4.892712 0,4.87266 -3.70964,7.820319 -3.68959,2.947658 -9.92579,2.947658 -2.90755,0 -5.79506,-0.541406 -2.86745,-0.541407 -5.61458,-1.604168 l 1.22317,-6.516933 q 2.66693,1.544012 5.17345,2.305992 2.52656,0.76198 4.97292,0.76198 2.64687,0 4.29115,-1.082814 1.66432,-1.082813 1.66432,-2.76719 0,-1.102865 -0.74193,-1.704428 -0.74192,-0.621615 -3.24844,-1.263282 l -3.14818,-0.782032 q -3.48906,-0.86224 -5.19349,-2.727086 -1.70443,-1.864845 -1.70443,-4.832556 0,-4.672139 3.56927,-7.479433 3.58933,-2.827346 9.64506,-2.827346 2.42631,0 4.97293,0.38099 2.56666,0.360938 5.21354,1.102865 z" />
    <path
       id="path917"
       style="font-style:oblique;font-variant:normal;font-weight:bold;font-stretch:normal;font-size:41.0667px;font-family:'DejaVu Sans';-inkscape-font-specification:'DejaVu Sans, Bold Oblique';font-variant-ligatures:normal;font-variant-caps:normal;font-variant-numeric:normal;font-variant-east-asian:normal;fill:#ffffff;fill-opacity:1;stroke-width:1.1"
       d="m 445.53896,74.584649 q -2.9276,1.423699 -6.07578,2.125523 -3.14818,0.681771 -6.73751,0.681771 -6.37657,0 -10.02605,-3.228388 -3.64948,-3.24844 -3.64948,-8.842976 0,-3.62943 1.14297,-6.797661 1.14297,-3.188284 3.40886,-5.815109 2.76719,-3.208336 6.51693,-4.792452 3.76979,-1.584116 8.60235,-1.584116 2.68698,0 5.41407,0.561459 2.72708,0.561459 5.37396,1.664324 l -1.18308,6.196099 q -2.44635,-1.423699 -4.79245,-2.125523 -2.32604,-0.701823 -4.69219,-0.701823 -5.17344,0 -8.42188,3.448961 -3.24844,3.448961 -3.24844,8.863028 0,3.589326 1.8849,5.574484 1.90495,1.985158 5.35391,1.985158 1.12292,0 2.24583,-0.140365 1.12292,-0.160417 2.26589,-0.481251 l 1.14297,-5.815108 h -4.71224 l 0.98255,-5.173442 h 11.99115 z" />
    <path
       id="path919"
       style="font-style:oblique;font-variant:normal;font-weight:bold;font-stretch:normal;font-size:41.0667px;font-family:'DejaVu Sans';-inkscape-font-specification:'DejaVu Sans, Bold Oblique';font-variant-ligatures:normal;font-variant-caps:normal;font-variant-numeric:normal;font-variant-east-asian:normal;fill:#ffffff;fill-opacity:1;stroke-width:1.1"
       d="m 457.95122,46.872648 h 7.72005 l -5.83516,29.937784 h -7.72006 z" />
    <path
       id="path921"
       style="font-style:oblique;font-variant:normal;font-weight:bold;font-stretch:normal;font-size:41.0667px;font-family:'DejaVu Sans';-inkscape-font-specification:'DejaVu Sans, Bold Oblique';font-variant-ligatures:normal;font-variant-caps:normal;font-variant-numeric:normal;font-variant-east-asian:normal;fill:#ffffff;fill-opacity:1;stroke-width:1.1"
       d="m 473.27104,46.872648 h 20.81408 l -1.14297,5.835161 h -13.09402 l -1.08281,5.574483 h 12.33204 l -1.16303,5.835161 h -12.31198 l -2.46641,12.692979 h -7.72006 z" />
  </g>
</svg>
